<?xml version="1.0" ?><svg height="48px" version="1.1" viewBox="0 0 48 48" width="48px" xmlns="http://www.w3.org/2000/svg" xmlns:xlink="http://www.w3.org/1999/xlink"><title/><g fill="none" fill-rule="evenodd" id="arrow-recycle" stroke="none" stroke-width="1"><path d="M9.11538435,4.98204034 L2.61538435,14.9820403 C2.39914905,15.31471 2.63794977,15.754625 3.03472026,15.7545345 L7.61,15.748 L7.76017,16.1887735 C10.3745434,23.6263176 16.6728391,27.7439615 23.0362941,28.2931646 C23.3214011,28.317771 23.5689587,28.0985181 23.5789804,27.8125267 L23.5902137,27.3632635 L23.5930274,26.8433622 L23.5728753,25.0912207 L23.5762319,24.7969959 C23.5819317,24.5436798 23.3972424,24.3261453 23.1463576,24.2906725 L22.7727746,24.2336299 C17.5780086,23.3811377 13.8723891,20.2736633 11.9711401,16.0031585 L11.858,15.742 L16.0322069,15.7545345 C16.430005,15.7564376 16.6706258,15.3155755 16.453828,14.9820403 L9.95382797,4.98204034 C9.75665625,4.67869924 9.31255606,4.67869924 9.11538435,4.98204034 Z" fill="#000000" fill-rule="nonzero" id="Path" transform="translate(13.063404, 16.524792) rotate(62.000000) translate(-13.063404, -16.524792) "/><path d="M32.0516022,6.88622621 L25.5516022,16.8862262 C25.3353669,17.2188959 25.5741676,17.6588109 25.9709381,17.6587204 L30.547,17.652 L30.6963878,18.0929594 C33.3107612,25.5305035 39.6090569,29.6481473 45.9725119,30.1973505 C46.257619,30.2219569 46.5051766,30.002704 46.5151983,29.7167126 L46.5264315,29.2674493 L46.5292452,28.747548 L46.5098555,27.1735614 L46.509972,26.8441519 L46.5124498,26.7011818 C46.5181496,26.4478657 46.3334603,26.2303312 46.0825755,26.1948584 L45.7089925,26.1378158 C40.5142264,25.2853236 36.808607,22.1778492 34.907358,17.9073444 L34.794,17.646 L38.9684247,17.6587204 C39.3662229,17.6606235 39.6068437,17.2197614 39.3900458,16.8862262 L32.8900458,6.88622621 C32.6928741,6.58288511 32.2487739,6.58288511 32.0516022,6.88622621 Z" fill="#000000" fill-rule="nonzero" id="Path" transform="translate(35.999622, 18.428978) rotate(183.000000) translate(-35.999622, -18.428978) "/><path d="M18.6143787,25.6111989 L12.1143787,35.6111989 C11.8981434,35.9438686 12.1369442,36.3837837 12.5337146,36.3836931 L17.109,36.377 L17.2591644,36.8179321 C19.8735378,44.2554762 26.1718335,48.3731201 32.5352884,48.9223232 C32.8203955,48.9469296 33.0679531,48.7276767 33.0779748,48.4416853 L33.0892081,47.9924221 L33.0920218,47.4725208 L33.0718697,45.7203793 L33.0752263,45.4261545 C33.0809261,45.1728385 32.8962368,44.9553039 32.645352,44.9198311 L32.271769,44.8627885 C27.077003,44.0102963 23.3713835,40.9028219 21.4701345,36.6323171 L21.357,36.371 L25.5312013,36.3836931 C25.9289994,36.3855962 26.1696202,35.9447341 25.9528223,35.6111989 L19.4528223,25.6111989 C19.2556506,25.3078578 18.8115504,25.3078578 18.6143787,25.6111989 Z" fill="#000000" fill-rule="nonzero" id="Path" transform="translate(22.562398, 37.153951) rotate(304.000000) translate(-22.562398, -37.153951) "/></g></svg>