<?xml version="1.0" ?><svg data-name="Your Icons" id="Your_Icons" viewBox="0 0 48 48" xmlns="http://www.w3.org/2000/svg"><title/><path d="M37,15h-1a8,8,0,0,0-15.86,0H17.15l-1.27-3.64A5,5,0,0,0,11.16,8H8a1,1,0,0,0,0,2h3.16A3,3,0,0,1,14,12l1,3h0l2.5,7.09,2.62,7.55A5,5,0,0,0,24.85,33H30a1,1,0,0,0,0-2H24.85A3,3,0,0,1,22,29H32.77a6.07,6.07,0,0,0,5.94-4.74l1.22-5.63A3,3,0,0,0,37,15ZM24.27,11.3A5.94,5.94,0,0,1,28,10a6,6,0,0,1,5.91,5A5.47,5.47,0,0,1,34,16a6,6,0,0,1-6,6q-.3,0-.6,0h-.1l-.49-.08h0a6,6,0,0,1-3-1.58l-.2-.22a2.09,2.09,0,0,1-.2-.22,1.09,1.09,0,0,1-.13-.17,3.4,3.4,0,0,1-.23-.3,2.26,2.26,0,0,1-.16-.26c-.05-.08-.1-.16-.14-.24a2.7,2.7,0,0,1-.17-.34l-.09-.19c-.05-.12-.1-.25-.14-.38s-.05-.12-.07-.17-.07-.27-.1-.41,0-.12-.05-.18,0-.28-.06-.43l0-.17a5.74,5.74,0,0,1,0-1.48A6,6,0,0,1,24.27,11.3ZM38,18.21l-1.22,5.63a4.08,4.08,0,0,1-4,3.16H21.35l-2-5.61L17.84,17h2.22l0,.14a7.26,7.26,0,0,0,.22,1,1.94,1.94,0,0,0,.05.2,10,10,0,0,0,.4,1l.14.27a8.24,8.24,0,0,0,.57.95l.14.18a7.67,7.67,0,0,0,.79.92,7,7,0,0,0,.58.51c.12.1.25.18.37.27a2.07,2.07,0,0,0,.24.17c.18.13.38.24.57.35l.07,0c.21.11.43.21.65.3l.05,0c.21.09.43.16.65.23l.08,0,.62.16.14,0q.3.06.6.09l.18,0a7.14,7.14,0,0,0,.8,0,6.68,6.68,0,0,0,.78,0l.31,0,.45-.07.37-.09.36-.09.4-.14.3-.11a3,3,0,0,0,.41-.18l.26-.12.41-.23.21-.13.42-.28.17-.13a4.12,4.12,0,0,0,.4-.33l.15-.13c.13-.12.26-.24.38-.37l.12-.13c.12-.14.25-.28.36-.42l.09-.12c.12-.15.23-.31.34-.47a.56.56,0,0,1,.05-.08,8.08,8.08,0,0,0,.82-1.7,1.27,1.27,0,0,0,.06-.18c0-.12.07-.24.1-.37s.07-.25.1-.37l.06-.34.06-.34h1a1,1,0,0,1,.82.39A1,1,0,0,1,38,18.21Z"/><path d="M23,36a3,3,0,1,0-3,3A3,3,0,0,0,23,36Zm-4,0a1,1,0,1,1,1,1A1,1,0,0,1,19,36Z"/><path d="M37,36a3,3,0,1,0-3,3A3,3,0,0,0,37,36Zm-4,0a1,1,0,1,1,1,1A1,1,0,0,1,33,36Z"/><path d="M25.5,17H27v1.5a1,1,0,0,0,2,0V17h1.5a1,1,0,0,0,0-2H29V13.5a1,1,0,0,0-2,0V15H25.5a1,1,0,0,0,0,2Z"/></svg>